<svg width="560" height="305" viewBox="0 0 560 305" fill="none" xmlns="http://www.w3.org/2000/svg">
<g filter="url(#filter0_d_2791_7867)">
<rect x="44" y="40" width="471.656" height="216.962" rx="10" fill="url(#paint0_linear_2791_7867)"/>
<path fill-rule="evenodd" clip-rule="evenodd" d="M515.657 187.963V246.962C515.657 252.485 511.18 256.962 505.657 256.962H350.805C350.654 254.78 350.577 252.578 350.577 250.359C350.577 198.261 392.811 156.027 444.908 156.027C473.083 156.027 498.372 168.379 515.657 187.963Z" fill="white" fill-opacity="0.23"/>
<path fill-rule="evenodd" clip-rule="evenodd" d="M515.656 205.08V50.0001C515.656 44.4772 511.179 40.0001 505.656 40.0001H453.26C433.677 57.2849 421.325 82.5742 421.325 110.748C421.325 162.846 463.559 205.08 515.656 205.08Z" fill="white" fill-opacity="0.23"/>
<circle cx="464.717" cy="86.2224" r="10.3764" fill="white"/>
<path d="M465.071 82.9826C464.676 82.9826 464.346 82.86 464.079 82.6146C463.823 82.3586 463.695 82.044 463.695 81.6706C463.695 81.2973 463.823 80.988 464.079 80.7426C464.346 80.4866 464.676 80.3586 465.071 80.3586C465.466 80.3586 465.791 80.4866 466.047 80.7426C466.314 80.988 466.447 81.2973 466.447 81.6706C466.447 82.044 466.314 82.3586 466.047 82.6146C465.791 82.86 465.466 82.9826 465.071 82.9826ZM466.175 84.0386V92.9026H463.935V84.0386H466.175Z" fill="#01A8EF"/>
<path d="M105.473 93.6763V102.946C105.473 103.978 105.155 104.806 104.519 105.43C103.883 106.042 103.043 106.348 101.999 106.348C100.943 106.348 100.097 106.036 99.4606 105.412C98.8246 104.776 98.5066 103.912 98.5066 102.82H100.145C100.157 103.432 100.313 103.93 100.613 104.314C100.925 104.698 101.387 104.89 101.999 104.89C102.611 104.89 103.067 104.71 103.367 104.35C103.667 103.978 103.817 103.51 103.817 102.946V93.6763H105.473ZM117.447 96.3583V106.222H115.809V104.764C115.497 105.268 115.059 105.664 114.495 105.952C113.943 106.228 113.331 106.366 112.659 106.366C111.891 106.366 111.201 106.21 110.589 105.898C109.977 105.574 109.491 105.094 109.131 104.458C108.783 103.822 108.609 103.048 108.609 102.136V96.3583H110.229V101.92C110.229 102.892 110.475 103.642 110.967 104.17C111.459 104.686 112.131 104.944 112.983 104.944C113.859 104.944 114.549 104.674 115.053 104.134C115.557 103.594 115.809 102.808 115.809 101.776V96.3583H117.447ZM132.075 96.1783C132.843 96.1783 133.527 96.3403 134.127 96.6643C134.727 96.9763 135.201 97.4503 135.549 98.0863C135.897 98.7223 136.071 99.4963 136.071 100.408V106.222H134.451V100.642C134.451 99.6583 134.205 98.9083 133.713 98.3923C133.233 97.8643 132.579 97.6003 131.751 97.6003C130.899 97.6003 130.221 97.8763 129.717 98.4283C129.213 98.9683 128.961 99.7543 128.961 100.786V106.222H127.341V100.642C127.341 99.6583 127.095 98.9083 126.603 98.3923C126.123 97.8643 125.469 97.6003 124.641 97.6003C123.789 97.6003 123.111 97.8763 122.607 98.4283C122.103 98.9683 121.851 99.7543 121.851 100.786V106.222H120.213V96.3583H121.851V97.7803C122.175 97.2643 122.607 96.8683 123.147 96.5923C123.699 96.3163 124.305 96.1783 124.965 96.1783C125.793 96.1783 126.525 96.3643 127.161 96.7363C127.797 97.1083 128.271 97.6543 128.583 98.3743C128.859 97.6783 129.315 97.1383 129.951 96.7543C130.587 96.3703 131.295 96.1783 132.075 96.1783ZM140.396 92.9023V106.222H138.758V92.9023H140.396ZM142.576 101.254C142.576 100.246 142.78 99.3643 143.188 98.6083C143.596 97.8403 144.154 97.2463 144.862 96.8263C145.582 96.4063 146.38 96.1963 147.256 96.1963C148.12 96.1963 148.87 96.3823 149.506 96.7543C150.142 97.1263 150.616 97.5943 150.928 98.1583V96.3583H152.584V106.222H150.928V104.386C150.604 104.962 150.118 105.442 149.47 105.826C148.834 106.198 148.09 106.384 147.238 106.384C146.362 106.384 145.57 106.168 144.862 105.736C144.154 105.304 143.596 104.698 143.188 103.918C142.78 103.138 142.576 102.25 142.576 101.254ZM150.928 101.272C150.928 100.528 150.778 99.8803 150.478 99.3283C150.178 98.7763 149.77 98.3563 149.254 98.0683C148.75 97.7683 148.192 97.6183 147.58 97.6183C146.968 97.6183 146.41 97.7623 145.906 98.0503C145.402 98.3383 145 98.7583 144.7 99.3103C144.4 99.8623 144.25 100.51 144.25 101.254C144.25 102.01 144.4 102.67 144.7 103.234C145 103.786 145.402 104.212 145.906 104.512C146.41 104.8 146.968 104.944 147.58 104.944C148.192 104.944 148.75 104.8 149.254 104.512C149.77 104.212 150.178 103.786 150.478 103.234C150.778 102.67 150.928 102.016 150.928 101.272ZM160.248 96.1783C160.992 96.1783 161.664 96.3403 162.264 96.6643C162.864 96.9763 163.332 97.4503 163.668 98.0863C164.016 98.7223 164.19 99.4963 164.19 100.408V106.222H162.57V100.642C162.57 99.6583 162.324 98.9083 161.832 98.3923C161.34 97.8643 160.668 97.6003 159.816 97.6003C158.952 97.6003 158.262 97.8703 157.746 98.4103C157.242 98.9503 156.99 99.7363 156.99 100.768V106.222H155.352V92.9023H156.99V97.7623C157.314 97.2583 157.758 96.8683 158.322 96.5923C158.898 96.3163 159.54 96.1783 160.248 96.1783ZM184.39 93.7663V106.222H182.752V96.9343L178.612 106.222H177.46L173.302 96.9163V106.222H171.664V93.7663H173.428L178.036 104.062L182.644 93.7663H184.39ZM191.47 106.384C190.546 106.384 189.706 106.174 188.95 105.754C188.206 105.334 187.618 104.74 187.186 103.972C186.766 103.192 186.556 102.292 186.556 101.272C186.556 100.264 186.772 99.3763 187.204 98.6083C187.648 97.8283 188.248 97.2343 189.004 96.8263C189.76 96.4063 190.606 96.1963 191.542 96.1963C192.478 96.1963 193.324 96.4063 194.08 96.8263C194.836 97.2343 195.43 97.8223 195.862 98.5903C196.306 99.3583 196.528 100.252 196.528 101.272C196.528 102.292 196.3 103.192 195.844 103.972C195.4 104.74 194.794 105.334 194.026 105.754C193.258 106.174 192.406 106.384 191.47 106.384ZM191.47 104.944C192.058 104.944 192.61 104.806 193.126 104.53C193.642 104.254 194.056 103.84 194.368 103.288C194.692 102.736 194.854 102.064 194.854 101.272C194.854 100.48 194.698 99.8083 194.386 99.2563C194.074 98.7043 193.666 98.2963 193.162 98.0323C192.658 97.7563 192.112 97.6183 191.524 97.6183C190.924 97.6183 190.372 97.7563 189.868 98.0323C189.376 98.2963 188.98 98.7043 188.68 99.2563C188.38 99.8083 188.23 100.48 188.23 101.272C188.23 102.076 188.374 102.754 188.662 103.306C188.962 103.858 189.358 104.272 189.85 104.548C190.342 104.812 190.882 104.944 191.47 104.944ZM200.32 98.1943C200.656 97.6063 201.148 97.1263 201.796 96.7543C202.444 96.3823 203.182 96.1963 204.01 96.1963C204.898 96.1963 205.696 96.4063 206.404 96.8263C207.112 97.2463 207.67 97.8403 208.078 98.6083C208.486 99.3643 208.69 100.246 208.69 101.254C208.69 102.25 208.486 103.138 208.078 103.918C207.67 104.698 207.106 105.304 206.386 105.736C205.678 106.168 204.886 106.384 204.01 106.384C203.158 106.384 202.408 106.198 201.76 105.826C201.124 105.454 200.644 104.98 200.32 104.404V106.222H198.682V92.9023H200.32V98.1943ZM207.016 101.254C207.016 100.51 206.866 99.8623 206.566 99.3103C206.266 98.7583 205.858 98.3383 205.342 98.0503C204.838 97.7623 204.28 97.6183 203.668 97.6183C203.068 97.6183 202.51 97.7683 201.994 98.0683C201.49 98.3563 201.082 98.7823 200.77 99.3463C200.47 99.8983 200.32 100.54 200.32 101.272C200.32 102.016 200.47 102.67 200.77 103.234C201.082 103.786 201.49 104.212 201.994 104.512C202.51 104.8 203.068 104.944 203.668 104.944C204.28 104.944 204.838 104.8 205.342 104.512C205.858 104.212 206.266 103.786 206.566 103.234C206.866 102.67 207.016 102.01 207.016 101.254ZM211.692 94.7563C211.38 94.7563 211.116 94.6483 210.9 94.4323C210.684 94.2163 210.576 93.9523 210.576 93.6403C210.576 93.3283 210.684 93.0643 210.9 92.8483C211.116 92.6323 211.38 92.5243 211.692 92.5243C211.992 92.5243 212.244 92.6323 212.448 92.8483C212.664 93.0643 212.772 93.3283 212.772 93.6403C212.772 93.9523 212.664 94.2163 212.448 94.4323C212.244 94.6483 211.992 94.7563 211.692 94.7563ZM212.484 96.3583V106.222H210.846V96.3583H212.484ZM216.914 92.9023V106.222H215.276V92.9023H216.914Z" fill="white"/>
<path d="M98.9206 148.245V144.117H106.633V167.445H102.025V148.245H98.9206ZM111.058 155.477C111.058 151.786 111.72 148.895 113.042 146.805C114.386 144.714 116.605 143.669 119.698 143.669C122.792 143.669 125 144.714 126.322 146.805C127.666 148.895 128.338 151.786 128.338 155.477C128.338 159.189 127.666 162.101 126.322 164.213C125 166.325 122.792 167.381 119.698 167.381C116.605 167.381 114.386 166.325 113.042 164.213C111.72 162.101 111.058 159.189 111.058 155.477ZM123.922 155.477C123.922 153.898 123.816 152.575 123.602 151.509C123.41 150.421 123.005 149.535 122.386 148.853C121.789 148.17 120.893 147.829 119.698 147.829C118.504 147.829 117.597 148.17 116.978 148.853C116.381 149.535 115.976 150.421 115.762 151.509C115.57 152.575 115.474 153.898 115.474 155.477C115.474 157.098 115.57 158.463 115.762 159.573C115.954 160.661 116.36 161.546 116.978 162.229C117.597 162.89 118.504 163.221 119.698 163.221C120.893 163.221 121.8 162.89 122.418 162.229C123.037 161.546 123.442 160.661 123.634 159.573C123.826 158.463 123.922 157.098 123.922 155.477ZM164.235 145.109V167.445H159.755V152.917L153.771 167.445H150.379L144.363 152.917V167.445H139.883V145.109H144.971L152.075 161.717L159.179 145.109H164.235ZM176.536 167.733C174.829 167.733 173.293 167.359 171.928 166.613C170.563 165.845 169.485 164.767 168.696 163.381C167.928 161.994 167.544 160.394 167.544 158.581C167.544 156.767 167.939 155.167 168.728 153.781C169.539 152.394 170.637 151.327 172.024 150.581C173.411 149.813 174.957 149.429 176.664 149.429C178.371 149.429 179.917 149.813 181.304 150.581C182.691 151.327 183.779 152.394 184.568 153.781C185.379 155.167 185.784 156.767 185.784 158.581C185.784 160.394 185.368 161.994 184.536 163.381C183.725 164.767 182.616 165.845 181.208 166.613C179.821 167.359 178.264 167.733 176.536 167.733ZM176.536 163.829C177.347 163.829 178.104 163.637 178.808 163.253C179.533 162.847 180.109 162.25 180.536 161.461C180.963 160.671 181.176 159.711 181.176 158.581C181.176 156.895 180.728 155.605 179.832 154.709C178.957 153.791 177.88 153.333 176.6 153.333C175.32 153.333 174.243 153.791 173.368 154.709C172.515 155.605 172.088 156.895 172.088 158.581C172.088 160.266 172.504 161.567 173.336 162.485C174.189 163.381 175.256 163.829 176.536 163.829ZM193.55 152.309C194.126 151.455 194.916 150.762 195.918 150.229C196.942 149.695 198.105 149.429 199.406 149.429C200.921 149.429 202.286 149.802 203.502 150.549C204.74 151.295 205.71 152.362 206.414 153.749C207.14 155.114 207.502 156.703 207.502 158.517C207.502 160.33 207.14 161.941 206.414 163.349C205.71 164.735 204.74 165.813 203.502 166.581C202.286 167.349 200.921 167.733 199.406 167.733C198.084 167.733 196.921 167.477 195.918 166.965C194.937 166.431 194.148 165.749 193.55 164.917V167.445H189.07V143.765H193.55V152.309ZM202.926 158.517C202.926 157.45 202.702 156.533 202.254 155.765C201.828 154.975 201.252 154.378 200.526 153.973C199.822 153.567 199.054 153.365 198.222 153.365C197.412 153.365 196.644 153.578 195.918 154.005C195.214 154.41 194.638 155.007 194.19 155.797C193.764 156.586 193.55 157.514 193.55 158.581C193.55 159.647 193.764 160.575 194.19 161.365C194.638 162.154 195.214 162.762 195.918 163.189C196.644 163.594 197.412 163.797 198.222 163.797C199.054 163.797 199.822 163.583 200.526 163.157C201.252 162.73 201.828 162.122 202.254 161.333C202.702 160.543 202.926 159.605 202.926 158.517ZM213.03 147.605C212.24 147.605 211.579 147.359 211.046 146.869C210.534 146.357 210.278 145.727 210.278 144.981C210.278 144.234 210.534 143.615 211.046 143.125C211.579 142.613 212.24 142.357 213.03 142.357C213.819 142.357 214.47 142.613 214.982 143.125C215.515 143.615 215.782 144.234 215.782 144.981C215.782 145.727 215.515 146.357 214.982 146.869C214.47 147.359 213.819 147.605 213.03 147.605ZM215.238 149.717V167.445H210.758V149.717H215.238ZM224.144 143.765V167.445H219.664V143.765H224.144Z" fill="white"/>
</g>
<defs>
<filter id="filter0_d_2791_7867" x="0" y="0" width="559.657" height="304.962" filterUnits="userSpaceOnUse" color-interpolation-filters="sRGB">
<feFlood flood-opacity="0" result="BackgroundImageFix"/>
<feColorMatrix in="SourceAlpha" type="matrix" values="0 0 0 0 0 0 0 0 0 0 0 0 0 0 0 0 0 0 127 0" result="hardAlpha"/>
<feMorphology radius="4" operator="dilate" in="SourceAlpha" result="effect1_dropShadow_2791_7867"/>
<feOffset dy="4"/>
<feGaussianBlur stdDeviation="20"/>
<feComposite in2="hardAlpha" operator="out"/>
<feColorMatrix type="matrix" values="0 0 0 0 0 0 0 0 0 0 0 0 0 0 0 0 0 0 0.12 0"/>
<feBlend mode="normal" in2="BackgroundImageFix" result="effect1_dropShadow_2791_7867"/>
<feBlend mode="normal" in="SourceGraphic" in2="effect1_dropShadow_2791_7867" result="shape"/>
</filter>
<linearGradient id="paint0_linear_2791_7867" x1="44" y1="148.481" x2="509.996" y2="148.481" gradientUnits="userSpaceOnUse">
<stop stop-color="#8FC9F9"/>
<stop offset="1" stop-color="#006CC1"/>
</linearGradient>
</defs>
</svg>
