<svg width="473" height="217" viewBox="0 0 473 217" fill="none" xmlns="http://www.w3.org/2000/svg">
<rect x="0.671875" width="471.656" height="216.962" rx="10" fill="url(#paint0_linear_2806_7281)"/>
<path fill-rule="evenodd" clip-rule="evenodd" d="M472.328 147.963V206.962C472.328 212.485 467.851 216.962 462.328 216.962H307.476C307.325 214.78 307.249 212.578 307.249 210.359C307.249 158.261 349.482 116.027 401.58 116.027C429.754 116.027 455.043 128.379 472.328 147.963Z" fill="white" fill-opacity="0.23"/>
<path fill-rule="evenodd" clip-rule="evenodd" d="M409.932 0H462.328C467.851 0 472.328 4.47715 472.328 10L472.328 165.08C420.23 165.08 377.997 122.846 377.997 70.7484C377.997 42.5742 390.348 17.2849 409.932 0Z" fill="white" fill-opacity="0.23"/>
<defs>
<linearGradient id="paint0_linear_2806_7281" x1="0.671875" y1="108.481" x2="466.668" y2="108.481" gradientUnits="userSpaceOnUse">
<stop stop-color="#82D9D1"/>
<stop offset="1" stop-color="#00CAAB"/>
</linearGradient>
</defs>
</svg>
