<svg width="560" height="305" viewBox="0 0 560 305" fill="none" xmlns="http://www.w3.org/2000/svg">
<g filter="url(#filter0_d_2791_7880)">
<rect x="44" y="40" width="471.656" height="216.962" rx="10" fill="url(#paint0_linear_2791_7880)"/>
<path fill-rule="evenodd" clip-rule="evenodd" d="M515.657 187.963V246.962C515.657 252.485 511.18 256.962 505.657 256.962H350.805C350.654 254.78 350.577 252.578 350.577 250.359C350.577 198.261 392.811 156.027 444.908 156.027C473.083 156.027 498.372 168.379 515.657 187.963Z" fill="white" fill-opacity="0.23"/>
<path fill-rule="evenodd" clip-rule="evenodd" d="M453.259 40H505.655C511.178 40 515.655 44.4772 515.655 50L515.655 205.08C463.558 205.08 421.324 162.846 421.324 110.748C421.324 82.5742 433.676 57.2849 453.259 40Z" fill="white" fill-opacity="0.23"/>
<circle cx="464.717" cy="86.2223" r="10.3764" fill="white"/>
<path d="M465.071 82.9826C464.676 82.9826 464.346 82.8599 464.079 82.6146C463.823 82.3586 463.695 82.0439 463.695 81.6706C463.695 81.2972 463.823 80.9879 464.079 80.7426C464.346 80.4866 464.676 80.3586 465.071 80.3586C465.466 80.3586 465.791 80.4866 466.047 80.7426C466.314 80.9879 466.447 81.2972 466.447 81.6706C466.447 82.0439 466.314 82.3586 466.047 82.6146C465.791 82.8599 465.466 82.9826 465.071 82.9826ZM466.175 84.0386V92.9026H463.935V84.0386H466.175Z" fill="#198754"/>
<path d="M105.032 93.454V102.724C105.032 103.756 104.714 104.584 104.078 105.208C103.442 105.82 102.602 106.126 101.558 106.126C100.502 106.126 99.6561 105.814 99.0201 105.19C98.3841 104.554 98.0661 103.69 98.0661 102.598H99.7041C99.7161 103.21 99.8721 103.708 100.172 104.092C100.484 104.476 100.946 104.668 101.558 104.668C102.17 104.668 102.626 104.488 102.926 104.128C103.226 103.756 103.376 103.288 103.376 102.724V93.454H105.032ZM117.007 96.136V106H115.369V104.542C115.057 105.046 114.619 105.442 114.055 105.73C113.503 106.006 112.891 106.144 112.219 106.144C111.451 106.144 110.761 105.988 110.149 105.676C109.537 105.352 109.051 104.872 108.691 104.236C108.343 103.6 108.169 102.826 108.169 101.914V96.136H109.789V101.698C109.789 102.67 110.035 103.42 110.527 103.948C111.019 104.464 111.691 104.722 112.543 104.722C113.419 104.722 114.109 104.452 114.613 103.912C115.117 103.372 115.369 102.586 115.369 101.554V96.136H117.007ZM131.635 95.956C132.403 95.956 133.087 96.118 133.687 96.442C134.287 96.754 134.761 97.228 135.109 97.864C135.457 98.5 135.631 99.274 135.631 100.186V106H134.011V100.42C134.011 99.436 133.765 98.686 133.273 98.17C132.793 97.642 132.139 97.378 131.311 97.378C130.459 97.378 129.781 97.654 129.277 98.206C128.773 98.746 128.521 99.532 128.521 100.564V106H126.901V100.42C126.901 99.436 126.655 98.686 126.163 98.17C125.683 97.642 125.029 97.378 124.201 97.378C123.349 97.378 122.671 97.654 122.167 98.206C121.663 98.746 121.411 99.532 121.411 100.564V106H119.773V96.136H121.411V97.558C121.735 97.042 122.167 96.646 122.707 96.37C123.259 96.094 123.865 95.956 124.525 95.956C125.353 95.956 126.085 96.142 126.721 96.514C127.357 96.886 127.831 97.432 128.143 98.152C128.419 97.456 128.875 96.916 129.511 96.532C130.147 96.148 130.855 95.956 131.635 95.956ZM139.956 92.68V106H138.318V92.68H139.956ZM142.135 101.032C142.135 100.024 142.339 99.142 142.747 98.386C143.155 97.618 143.713 97.024 144.421 96.604C145.141 96.184 145.939 95.974 146.815 95.974C147.679 95.974 148.429 96.16 149.065 96.532C149.701 96.904 150.175 97.372 150.487 97.936V96.136H152.143V106H150.487V104.164C150.163 104.74 149.677 105.22 149.029 105.604C148.393 105.976 147.649 106.162 146.797 106.162C145.921 106.162 145.129 105.946 144.421 105.514C143.713 105.082 143.155 104.476 142.747 103.696C142.339 102.916 142.135 102.028 142.135 101.032ZM150.487 101.05C150.487 100.306 150.337 99.658 150.037 99.106C149.737 98.554 149.329 98.134 148.813 97.846C148.309 97.546 147.751 97.396 147.139 97.396C146.527 97.396 145.969 97.54 145.465 97.828C144.961 98.116 144.559 98.536 144.259 99.088C143.959 99.64 143.809 100.288 143.809 101.032C143.809 101.788 143.959 102.448 144.259 103.012C144.559 103.564 144.961 103.99 145.465 104.29C145.969 104.578 146.527 104.722 147.139 104.722C147.751 104.722 148.309 104.578 148.813 104.29C149.329 103.99 149.737 103.564 150.037 103.012C150.337 102.448 150.487 101.794 150.487 101.05ZM159.807 95.956C160.551 95.956 161.223 96.118 161.823 96.442C162.423 96.754 162.891 97.228 163.227 97.864C163.575 98.5 163.749 99.274 163.749 100.186V106H162.129V100.42C162.129 99.436 161.883 98.686 161.391 98.17C160.899 97.642 160.227 97.378 159.375 97.378C158.511 97.378 157.821 97.648 157.305 98.188C156.801 98.728 156.549 99.514 156.549 100.546V106H154.911V92.68H156.549V97.54C156.873 97.036 157.317 96.646 157.881 96.37C158.457 96.094 159.099 95.956 159.807 95.956ZM178.946 93.454V94.786H175.526V106H173.888V94.786H170.45V93.454H178.946ZM182.6 97.738C182.888 97.174 183.296 96.736 183.824 96.424C184.364 96.112 185.018 95.956 185.786 95.956V97.648H185.354C183.518 97.648 182.6 98.644 182.6 100.636V106H180.962V96.136H182.6V97.738ZM187.065 101.032C187.065 100.024 187.269 99.142 187.677 98.386C188.085 97.618 188.643 97.024 189.351 96.604C190.071 96.184 190.869 95.974 191.745 95.974C192.609 95.974 193.359 96.16 193.995 96.532C194.631 96.904 195.105 97.372 195.417 97.936V96.136H197.073V106H195.417V104.164C195.093 104.74 194.607 105.22 193.959 105.604C193.323 105.976 192.579 106.162 191.727 106.162C190.851 106.162 190.059 105.946 189.351 105.514C188.643 105.082 188.085 104.476 187.677 103.696C187.269 102.916 187.065 102.028 187.065 101.032ZM195.417 101.05C195.417 100.306 195.267 99.658 194.967 99.106C194.667 98.554 194.259 98.134 193.743 97.846C193.239 97.546 192.681 97.396 192.069 97.396C191.457 97.396 190.899 97.54 190.395 97.828C189.891 98.116 189.489 98.536 189.189 99.088C188.889 99.64 188.739 100.288 188.739 101.032C188.739 101.788 188.889 102.448 189.189 103.012C189.489 103.564 189.891 103.99 190.395 104.29C190.899 104.578 191.457 104.722 192.069 104.722C192.681 104.722 193.239 104.578 193.743 104.29C194.259 103.99 194.667 103.564 194.967 103.012C195.267 102.448 195.417 101.794 195.417 101.05ZM204.647 95.956C205.847 95.956 206.819 96.322 207.563 97.054C208.307 97.774 208.679 98.818 208.679 100.186V106H207.059V100.42C207.059 99.436 206.813 98.686 206.321 98.17C205.829 97.642 205.157 97.378 204.305 97.378C203.441 97.378 202.751 97.648 202.235 98.188C201.731 98.728 201.479 99.514 201.479 100.546V106H199.841V96.136H201.479V97.54C201.803 97.036 202.241 96.646 202.793 96.37C203.357 96.094 203.975 95.956 204.647 95.956ZM214.847 106.162C214.091 106.162 213.413 106.036 212.813 105.784C212.213 105.52 211.739 105.16 211.391 104.704C211.043 104.236 210.851 103.702 210.815 103.102H212.507C212.555 103.594 212.783 103.996 213.191 104.308C213.611 104.62 214.157 104.776 214.829 104.776C215.453 104.776 215.945 104.638 216.305 104.362C216.665 104.086 216.845 103.738 216.845 103.318C216.845 102.886 216.653 102.568 216.269 102.364C215.885 102.148 215.291 101.938 214.487 101.734C213.755 101.542 213.155 101.35 212.687 101.158C212.231 100.954 211.835 100.66 211.499 100.276C211.175 99.88 211.013 99.364 211.013 98.728C211.013 98.224 211.163 97.762 211.463 97.342C211.763 96.922 212.189 96.592 212.741 96.352C213.293 96.1 213.923 95.974 214.631 95.974C215.723 95.974 216.605 96.25 217.277 96.802C217.949 97.354 218.309 98.11 218.357 99.07H216.719C216.683 98.554 216.473 98.14 216.089 97.828C215.717 97.516 215.213 97.36 214.577 97.36C213.989 97.36 213.521 97.486 213.173 97.738C212.825 97.99 212.651 98.32 212.651 98.728C212.651 99.052 212.753 99.322 212.957 99.538C213.173 99.742 213.437 99.91 213.749 100.042C214.073 100.162 214.517 100.3 215.081 100.456C215.789 100.648 216.365 100.84 216.809 101.032C217.253 101.212 217.631 101.488 217.943 101.86C218.267 102.232 218.435 102.718 218.447 103.318C218.447 103.858 218.297 104.344 217.997 104.776C217.697 105.208 217.271 105.55 216.719 105.802C216.179 106.042 215.555 106.162 214.847 106.162ZM220.147 101.032C220.147 100.024 220.351 99.142 220.759 98.386C221.167 97.618 221.725 97.024 222.433 96.604C223.153 96.184 223.951 95.974 224.827 95.974C225.691 95.974 226.441 96.16 227.077 96.532C227.713 96.904 228.187 97.372 228.499 97.936V96.136H230.155V106H228.499V104.164C228.175 104.74 227.689 105.22 227.041 105.604C226.405 105.976 225.661 106.162 224.809 106.162C223.933 106.162 223.141 105.946 222.433 105.514C221.725 105.082 221.167 104.476 220.759 103.696C220.351 102.916 220.147 102.028 220.147 101.032ZM228.499 101.05C228.499 100.306 228.349 99.658 228.049 99.106C227.749 98.554 227.341 98.134 226.825 97.846C226.321 97.546 225.763 97.396 225.151 97.396C224.539 97.396 223.981 97.54 223.477 97.828C222.973 98.116 222.571 98.536 222.271 99.088C221.971 99.64 221.821 100.288 221.821 101.032C221.821 101.788 221.971 102.448 222.271 103.012C222.571 103.564 222.973 103.99 223.477 104.29C223.981 104.578 224.539 104.722 225.151 104.722C225.763 104.722 226.321 104.578 226.825 104.29C227.341 103.99 227.749 103.564 228.049 103.012C228.349 102.448 228.499 101.794 228.499 101.05ZM238.431 106L234.561 101.644V106H232.923V92.68H234.561V100.51L238.359 96.136H240.645L236.001 101.05L240.663 106H238.431ZM245.679 106.162C244.923 106.162 244.245 106.036 243.645 105.784C243.045 105.52 242.571 105.16 242.223 104.704C241.875 104.236 241.683 103.702 241.647 103.102H243.339C243.387 103.594 243.615 103.996 244.023 104.308C244.443 104.62 244.989 104.776 245.661 104.776C246.285 104.776 246.777 104.638 247.137 104.362C247.497 104.086 247.677 103.738 247.677 103.318C247.677 102.886 247.485 102.568 247.101 102.364C246.717 102.148 246.123 101.938 245.319 101.734C244.587 101.542 243.987 101.35 243.519 101.158C243.063 100.954 242.667 100.66 242.331 100.276C242.007 99.88 241.845 99.364 241.845 98.728C241.845 98.224 241.995 97.762 242.295 97.342C242.595 96.922 243.021 96.592 243.573 96.352C244.125 96.1 244.755 95.974 245.463 95.974C246.555 95.974 247.437 96.25 248.109 96.802C248.781 97.354 249.141 98.11 249.189 99.07H247.551C247.515 98.554 247.305 98.14 246.921 97.828C246.549 97.516 246.045 97.36 245.409 97.36C244.821 97.36 244.353 97.486 244.005 97.738C243.657 97.99 243.483 98.32 243.483 98.728C243.483 99.052 243.585 99.322 243.789 99.538C244.005 99.742 244.269 99.91 244.581 100.042C244.905 100.162 245.349 100.3 245.913 100.456C246.621 100.648 247.197 100.84 247.641 101.032C248.085 101.212 248.463 101.488 248.775 101.86C249.099 102.232 249.267 102.718 249.279 103.318C249.279 103.858 249.129 104.344 248.829 104.776C248.529 105.208 248.103 105.55 247.551 105.802C247.011 106.042 246.387 106.162 245.679 106.162ZM252.437 94.534C252.125 94.534 251.861 94.426 251.645 94.21C251.429 93.994 251.321 93.73 251.321 93.418C251.321 93.106 251.429 92.842 251.645 92.626C251.861 92.41 252.125 92.302 252.437 92.302C252.737 92.302 252.989 92.41 253.193 92.626C253.409 92.842 253.517 93.106 253.517 93.418C253.517 93.73 253.409 93.994 253.193 94.21C252.989 94.426 252.737 94.534 252.437 94.534ZM253.229 96.136V106H251.591V96.136H253.229Z" fill="white"/>
<path d="M98.9206 148.245V144.117H106.633V167.445H102.025V148.245H98.9206ZM111.058 155.477C111.058 151.786 111.72 148.895 113.042 146.805C114.386 144.714 116.605 143.669 119.698 143.669C122.792 143.669 125 144.714 126.322 146.805C127.666 148.895 128.338 151.786 128.338 155.477C128.338 159.189 127.666 162.101 126.322 164.213C125 166.325 122.792 167.381 119.698 167.381C116.605 167.381 114.386 166.325 113.042 164.213C111.72 162.101 111.058 159.189 111.058 155.477ZM123.922 155.477C123.922 153.898 123.816 152.575 123.602 151.509C123.41 150.421 123.005 149.535 122.386 148.853C121.789 148.17 120.893 147.829 119.698 147.829C118.504 147.829 117.597 148.17 116.978 148.853C116.381 149.535 115.976 150.421 115.762 151.509C115.57 152.575 115.474 153.898 115.474 155.477C115.474 157.098 115.57 158.463 115.762 159.573C115.954 160.661 116.36 161.546 116.978 162.229C117.597 162.89 118.504 163.221 119.698 163.221C120.893 163.221 121.8 162.89 122.418 162.229C123.037 161.546 123.442 160.661 123.634 159.573C123.826 158.463 123.922 157.098 123.922 155.477ZM155.083 145.109V148.725H149.131V167.445H144.651V148.725H138.699V145.109H155.083ZM162.832 152.469C163.408 151.53 164.154 150.794 165.072 150.261C166.01 149.727 167.077 149.461 168.272 149.461V154.165H167.088C165.68 154.165 164.613 154.495 163.888 155.157C163.184 155.818 162.832 156.97 162.832 158.613V167.445H158.352V149.717H162.832V152.469ZM170.137 158.517C170.137 156.725 170.489 155.135 171.193 153.749C171.918 152.362 172.889 151.295 174.105 150.549C175.342 149.802 176.718 149.429 178.233 149.429C179.556 149.429 180.708 149.695 181.689 150.229C182.692 150.762 183.492 151.434 184.089 152.245V149.717H188.601V167.445H184.089V164.853C183.513 165.685 182.713 166.378 181.689 166.933C180.686 167.466 179.524 167.733 178.201 167.733C176.708 167.733 175.342 167.349 174.105 166.581C172.889 165.813 171.918 164.735 171.193 163.349C170.489 161.941 170.137 160.33 170.137 158.517ZM184.089 158.581C184.089 157.493 183.876 156.565 183.449 155.797C183.022 155.007 182.446 154.41 181.721 154.005C180.996 153.578 180.217 153.365 179.385 153.365C178.553 153.365 177.785 153.567 177.081 153.973C176.377 154.378 175.801 154.975 175.353 155.765C174.926 156.533 174.713 157.45 174.713 158.517C174.713 159.583 174.926 160.522 175.353 161.333C175.801 162.122 176.377 162.73 177.081 163.157C177.806 163.583 178.574 163.797 179.385 163.797C180.217 163.797 180.996 163.594 181.721 163.189C182.446 162.762 183.022 162.165 183.449 161.397C183.876 160.607 184.089 159.669 184.089 158.581ZM202.801 149.461C204.913 149.461 206.619 150.133 207.921 151.477C209.222 152.799 209.873 154.655 209.873 157.045V167.445H205.393V157.653C205.393 156.245 205.041 155.167 204.337 154.421C203.633 153.653 202.673 153.269 201.457 153.269C200.219 153.269 199.238 153.653 198.513 154.421C197.809 155.167 197.457 156.245 197.457 157.653V167.445H192.977V149.717H197.457V151.925C198.054 151.157 198.811 150.559 199.729 150.133C200.667 149.685 201.691 149.461 202.801 149.461ZM220.917 167.733C219.466 167.733 218.165 167.477 217.013 166.965C215.861 166.431 214.943 165.717 214.261 164.821C213.599 163.925 213.237 162.933 213.173 161.845H217.685C217.77 162.527 218.101 163.093 218.677 163.541C219.274 163.989 220.01 164.213 220.885 164.213C221.738 164.213 222.399 164.042 222.869 163.701C223.359 163.359 223.605 162.922 223.605 162.389C223.605 161.813 223.306 161.386 222.709 161.109C222.133 160.81 221.205 160.49 219.925 160.149C218.602 159.829 217.514 159.498 216.661 159.157C215.829 158.815 215.103 158.293 214.485 157.589C213.887 156.885 213.589 155.935 213.589 154.741C213.589 153.759 213.866 152.863 214.421 152.053C214.997 151.242 215.807 150.602 216.853 150.133C217.919 149.663 219.167 149.429 220.597 149.429C222.709 149.429 224.394 149.962 225.653 151.029C226.911 152.074 227.605 153.493 227.733 155.285H223.445C223.381 154.581 223.082 154.026 222.549 153.621C222.037 153.194 221.343 152.981 220.469 152.981C219.658 152.981 219.029 153.13 218.581 153.429C218.154 153.727 217.941 154.143 217.941 154.677C217.941 155.274 218.239 155.733 218.837 156.053C219.434 156.351 220.362 156.661 221.621 156.981C222.901 157.301 223.957 157.631 224.789 157.973C225.621 158.314 226.335 158.847 226.933 159.573C227.551 160.277 227.871 161.215 227.893 162.389C227.893 163.413 227.605 164.33 227.029 165.141C226.474 165.951 225.663 166.591 224.597 167.061C223.551 167.509 222.325 167.733 220.917 167.733ZM230.418 158.517C230.418 156.725 230.77 155.135 231.474 153.749C232.2 152.362 233.17 151.295 234.386 150.549C235.624 149.802 237 149.429 238.514 149.429C239.837 149.429 240.989 149.695 241.97 150.229C242.973 150.762 243.773 151.434 244.37 152.245V149.717H248.882V167.445H244.37V164.853C243.794 165.685 242.994 166.378 241.97 166.933C240.968 167.466 239.805 167.733 238.482 167.733C236.989 167.733 235.624 167.349 234.386 166.581C233.17 165.813 232.2 164.735 231.474 163.349C230.77 161.941 230.418 160.33 230.418 158.517ZM244.37 158.581C244.37 157.493 244.157 156.565 243.73 155.797C243.304 155.007 242.728 154.41 242.002 154.005C241.277 153.578 240.498 153.365 239.666 153.365C238.834 153.365 238.066 153.567 237.362 153.973C236.658 154.378 236.082 154.975 235.634 155.765C235.208 156.533 234.994 157.45 234.994 158.517C234.994 159.583 235.208 160.522 235.634 161.333C236.082 162.122 236.658 162.73 237.362 163.157C238.088 163.583 238.856 163.797 239.666 163.797C240.498 163.797 241.277 163.594 242.002 163.189C242.728 162.762 243.304 162.165 243.73 161.397C244.157 160.607 244.37 159.669 244.37 158.581ZM263.754 167.445L257.738 159.893V167.445H253.258V143.765H257.738V157.237L263.69 149.717H269.514L261.706 158.613L269.578 167.445H263.754ZM278.729 167.733C277.279 167.733 275.977 167.477 274.825 166.965C273.673 166.431 272.756 165.717 272.073 164.821C271.412 163.925 271.049 162.933 270.985 161.845H275.497C275.583 162.527 275.913 163.093 276.489 163.541C277.087 163.989 277.823 164.213 278.697 164.213C279.551 164.213 280.212 164.042 280.681 163.701C281.172 163.359 281.417 162.922 281.417 162.389C281.417 161.813 281.119 161.386 280.521 161.109C279.945 160.81 279.017 160.49 277.737 160.149C276.415 159.829 275.327 159.498 274.473 159.157C273.641 158.815 272.916 158.293 272.297 157.589C271.7 156.885 271.401 155.935 271.401 154.741C271.401 153.759 271.679 152.863 272.233 152.053C272.809 151.242 273.62 150.602 274.665 150.133C275.732 149.663 276.98 149.429 278.409 149.429C280.521 149.429 282.207 149.962 283.465 151.029C284.724 152.074 285.417 153.493 285.545 155.285H281.257C281.193 154.581 280.895 154.026 280.361 153.621C279.849 153.194 279.156 152.981 278.281 152.981C277.471 152.981 276.841 153.13 276.393 153.429C275.967 153.727 275.753 154.143 275.753 154.677C275.753 155.274 276.052 155.733 276.649 156.053C277.247 156.351 278.175 156.661 279.433 156.981C280.713 157.301 281.769 157.631 282.601 157.973C283.433 158.314 284.148 158.847 284.745 159.573C285.364 160.277 285.684 161.215 285.705 162.389C285.705 163.413 285.417 164.33 284.841 165.141C284.287 165.951 283.476 166.591 282.409 167.061C281.364 167.509 280.137 167.733 278.729 167.733ZM291.655 147.605C290.865 147.605 290.204 147.359 289.671 146.869C289.159 146.357 288.903 145.727 288.903 144.981C288.903 144.234 289.159 143.615 289.671 143.125C290.204 142.613 290.865 142.357 291.655 142.357C292.444 142.357 293.095 142.613 293.607 143.125C294.14 143.615 294.407 144.234 294.407 144.981C294.407 145.727 294.14 146.357 293.607 146.869C293.095 147.359 292.444 147.605 291.655 147.605ZM293.863 149.717V167.445H289.383V149.717H293.863Z" fill="white"/>
</g>
<defs>
<filter id="filter0_d_2791_7880" x="0" y="0" width="559.656" height="304.962" filterUnits="userSpaceOnUse" color-interpolation-filters="sRGB">
<feFlood flood-opacity="0" result="BackgroundImageFix"/>
<feColorMatrix in="SourceAlpha" type="matrix" values="0 0 0 0 0 0 0 0 0 0 0 0 0 0 0 0 0 0 127 0" result="hardAlpha"/>
<feMorphology radius="4" operator="dilate" in="SourceAlpha" result="effect1_dropShadow_2791_7880"/>
<feOffset dy="4"/>
<feGaussianBlur stdDeviation="20"/>
<feComposite in2="hardAlpha" operator="out"/>
<feColorMatrix type="matrix" values="0 0 0 0 0 0 0 0 0 0 0 0 0 0 0 0 0 0 0.12 0"/>
<feBlend mode="normal" in2="BackgroundImageFix" result="effect1_dropShadow_2791_7880"/>
<feBlend mode="normal" in="SourceGraphic" in2="effect1_dropShadow_2791_7880" result="shape"/>
</filter>
<linearGradient id="paint0_linear_2791_7880" x1="44" y1="148.481" x2="509.996" y2="148.481" gradientUnits="userSpaceOnUse">
<stop stop-color="#82D9D1"/>
<stop offset="1" stop-color="#00CAAB"/>
</linearGradient>
</defs>
</svg>
