<svg width="560" height="305" viewBox="0 0 560 305" fill="none" xmlns="http://www.w3.org/2000/svg">
<g filter="url(#filter0_d_2791_7854)">
<rect x="44" y="40" width="471.656" height="216.962" rx="10" fill="url(#paint0_linear_2791_7854)"/>
<path fill-rule="evenodd" clip-rule="evenodd" d="M515.657 187.963V246.962C515.657 252.485 511.18 256.962 505.657 256.962H350.805C350.654 254.78 350.577 252.578 350.577 250.359C350.577 198.261 392.811 156.027 444.908 156.027C473.083 156.027 498.372 168.379 515.657 187.963Z" fill="white" fill-opacity="0.23"/>
<path fill-rule="evenodd" clip-rule="evenodd" d="M453.259 40H505.655C511.178 40 515.655 44.4772 515.655 50V205.08C463.558 205.08 421.324 162.846 421.324 110.748C421.324 82.5742 433.676 57.2849 453.259 40Z" fill="white" fill-opacity="0.23"/>
<circle cx="464.717" cy="86.2223" r="10.3764" fill="white"/>
<path d="M465.071 82.9826C464.676 82.9826 464.346 82.8599 464.079 82.6146C463.823 82.3586 463.695 82.0439 463.695 81.6706C463.695 81.2972 463.823 80.9879 464.079 80.7426C464.346 80.4866 464.676 80.3586 465.071 80.3586C465.466 80.3586 465.791 80.4866 466.047 80.7426C466.314 80.9879 466.447 81.2972 466.447 81.6706C466.447 82.0439 466.314 82.3586 466.047 82.6146C465.791 82.8599 465.466 82.9826 465.071 82.9826ZM466.175 84.0386V92.9026H463.935V84.0386H466.175Z" fill="#DC3545"/>
<path d="M105.473 93.6763V102.946C105.473 103.978 105.155 104.806 104.519 105.43C103.883 106.042 103.043 106.348 101.999 106.348C100.943 106.348 100.097 106.036 99.4606 105.412C98.8246 104.776 98.5066 103.912 98.5066 102.82H100.145C100.157 103.432 100.313 103.93 100.613 104.314C100.925 104.698 101.387 104.89 101.999 104.89C102.611 104.89 103.067 104.71 103.367 104.35C103.667 103.978 103.817 103.51 103.817 102.946V93.6763H105.473ZM117.447 96.3583V106.222H115.809V104.764C115.497 105.268 115.059 105.664 114.495 105.952C113.943 106.228 113.331 106.366 112.659 106.366C111.891 106.366 111.201 106.21 110.589 105.898C109.977 105.574 109.491 105.094 109.131 104.458C108.783 103.822 108.609 103.048 108.609 102.136V96.3583H110.229V101.92C110.229 102.892 110.475 103.642 110.967 104.17C111.459 104.686 112.131 104.944 112.983 104.944C113.859 104.944 114.549 104.674 115.053 104.134C115.557 103.594 115.809 102.808 115.809 101.776V96.3583H117.447ZM132.075 96.1783C132.843 96.1783 133.527 96.3403 134.127 96.6643C134.727 96.9763 135.201 97.4503 135.549 98.0863C135.897 98.7223 136.071 99.4963 136.071 100.408V106.222H134.451V100.642C134.451 99.6583 134.205 98.9083 133.713 98.3923C133.233 97.8643 132.579 97.6003 131.751 97.6003C130.899 97.6003 130.221 97.8763 129.717 98.4283C129.213 98.9683 128.961 99.7543 128.961 100.786V106.222H127.341V100.642C127.341 99.6583 127.095 98.9083 126.603 98.3923C126.123 97.8643 125.469 97.6003 124.641 97.6003C123.789 97.6003 123.111 97.8763 122.607 98.4283C122.103 98.9683 121.851 99.7543 121.851 100.786V106.222H120.213V96.3583H121.851V97.7803C122.175 97.2643 122.607 96.8683 123.147 96.5923C123.699 96.3163 124.305 96.1783 124.965 96.1783C125.793 96.1783 126.525 96.3643 127.161 96.7363C127.797 97.1083 128.271 97.6543 128.583 98.3743C128.859 97.6783 129.315 97.1383 129.951 96.7543C130.587 96.3703 131.295 96.1783 132.075 96.1783ZM140.396 92.9023V106.222H138.758V92.9023H140.396ZM142.576 101.254C142.576 100.246 142.78 99.3643 143.188 98.6083C143.596 97.8403 144.154 97.2463 144.862 96.8263C145.582 96.4063 146.38 96.1963 147.256 96.1963C148.12 96.1963 148.87 96.3823 149.506 96.7543C150.142 97.1263 150.616 97.5943 150.928 98.1583V96.3583H152.584V106.222H150.928V104.386C150.604 104.962 150.118 105.442 149.47 105.826C148.834 106.198 148.09 106.384 147.238 106.384C146.362 106.384 145.57 106.168 144.862 105.736C144.154 105.304 143.596 104.698 143.188 103.918C142.78 103.138 142.576 102.25 142.576 101.254ZM150.928 101.272C150.928 100.528 150.778 99.8803 150.478 99.3283C150.178 98.7763 149.77 98.3563 149.254 98.0683C148.75 97.7683 148.192 97.6183 147.58 97.6183C146.968 97.6183 146.41 97.7623 145.906 98.0503C145.402 98.3383 145 98.7583 144.7 99.3103C144.4 99.8623 144.25 100.51 144.25 101.254C144.25 102.01 144.4 102.67 144.7 103.234C145 103.786 145.402 104.212 145.906 104.512C146.41 104.8 146.968 104.944 147.58 104.944C148.192 104.944 148.75 104.8 149.254 104.512C149.77 104.212 150.178 103.786 150.478 103.234C150.778 102.67 150.928 102.016 150.928 101.272ZM160.248 96.1783C160.992 96.1783 161.664 96.3403 162.264 96.6643C162.864 96.9763 163.332 97.4503 163.668 98.0863C164.016 98.7223 164.19 99.4963 164.19 100.408V106.222H162.57V100.642C162.57 99.6583 162.324 98.9083 161.832 98.3923C161.34 97.8643 160.668 97.6003 159.816 97.6003C158.952 97.6003 158.262 97.8703 157.746 98.4103C157.242 98.9503 156.99 99.7363 156.99 100.768V106.222H155.352V92.9023H156.99V97.7623C157.314 97.2583 157.758 96.8683 158.322 96.5923C158.898 96.3163 159.54 96.1783 160.248 96.1783ZM184.39 93.7663V106.222H182.752V96.9343L178.612 106.222H177.46L173.302 96.9163V106.222H171.664V93.7663H173.428L178.036 104.062L182.644 93.7663H184.39ZM196.168 100.912C196.168 101.224 196.15 101.554 196.114 101.902H188.23C188.29 102.874 188.62 103.636 189.22 104.188C189.832 104.728 190.57 104.998 191.434 104.998C192.142 104.998 192.73 104.836 193.198 104.512C193.678 104.176 194.014 103.732 194.206 103.18H195.97C195.706 104.128 195.178 104.902 194.386 105.502C193.594 106.09 192.61 106.384 191.434 106.384C190.498 106.384 189.658 106.174 188.914 105.754C188.182 105.334 187.606 104.74 187.186 103.972C186.766 103.192 186.556 102.292 186.556 101.272C186.556 100.252 186.76 99.3583 187.168 98.5903C187.576 97.8223 188.146 97.2343 188.878 96.8263C189.622 96.4063 190.474 96.1963 191.434 96.1963C192.37 96.1963 193.198 96.4003 193.918 96.8083C194.638 97.2163 195.19 97.7803 195.574 98.5003C195.97 99.2083 196.168 100.012 196.168 100.912ZM194.476 100.57C194.476 99.9463 194.338 99.4123 194.062 98.9683C193.786 98.5123 193.408 98.1703 192.928 97.9423C192.46 97.7023 191.938 97.5823 191.362 97.5823C190.534 97.5823 189.826 97.8463 189.238 98.3743C188.662 98.9023 188.332 99.6343 188.248 100.57H194.476ZM199.968 97.9603C200.256 97.3963 200.664 96.9583 201.192 96.6463C201.732 96.3343 202.386 96.1783 203.154 96.1783V97.8703H202.722C200.886 97.8703 199.968 98.8663 199.968 100.858V106.222H198.33V96.3583H199.968V97.9603ZM210.553 106.222L206.683 101.866V106.222H205.045V92.9023H206.683V100.732L210.481 96.3583H212.767L208.123 101.272L212.785 106.222H210.553Z" fill="white"/>
<path d="M99.152 147.8V143.672H106.864V167H102.256V147.8H99.152ZM111.29 155.032C111.29 151.341 111.951 148.451 113.274 146.36C114.618 144.269 116.836 143.224 119.93 143.224C123.023 143.224 125.231 144.269 126.554 146.36C127.898 148.451 128.57 151.341 128.57 155.032C128.57 158.744 127.898 161.656 126.554 163.768C125.231 165.88 123.023 166.936 119.93 166.936C116.836 166.936 114.618 165.88 113.274 163.768C111.951 161.656 111.29 158.744 111.29 155.032ZM124.154 155.032C124.154 153.453 124.047 152.131 123.834 151.064C123.642 149.976 123.236 149.091 122.618 148.408C122.02 147.725 121.124 147.384 119.93 147.384C118.735 147.384 117.828 147.725 117.21 148.408C116.612 149.091 116.207 149.976 115.994 151.064C115.802 152.131 115.706 153.453 115.706 155.032C115.706 156.653 115.802 158.019 115.994 159.128C116.186 160.216 116.591 161.101 117.21 161.784C117.828 162.445 118.735 162.776 119.93 162.776C121.124 162.776 122.031 162.445 122.65 161.784C123.268 161.101 123.674 160.216 123.866 159.128C124.058 158.019 124.154 156.653 124.154 155.032ZM164.466 144.664V167H159.986V152.472L154.002 167H150.61L144.594 152.472V167H140.114V144.664H145.202L152.306 161.272L159.41 144.664H164.466ZM185.376 157.752C185.376 158.392 185.333 158.968 185.248 159.48H172.288C172.394 160.76 172.842 161.763 173.632 162.488C174.421 163.213 175.392 163.576 176.544 163.576C178.208 163.576 179.392 162.861 180.096 161.432H184.928C184.416 163.139 183.434 164.547 181.984 165.656C180.533 166.744 178.752 167.288 176.64 167.288C174.933 167.288 173.397 166.915 172.032 166.168C170.688 165.4 169.632 164.323 168.864 162.936C168.117 161.549 167.743 159.949 167.743 158.136C167.743 156.301 168.117 154.691 168.864 153.304C169.61 151.917 170.656 150.851 172 150.104C173.344 149.357 174.89 148.984 176.64 148.984C178.325 148.984 179.829 149.347 181.152 150.072C182.496 150.797 183.53 151.832 184.256 153.176C185.002 154.499 185.376 156.024 185.376 157.752ZM180.736 156.472C180.714 155.32 180.298 154.403 179.488 153.72C178.677 153.016 177.685 152.664 176.512 152.664C175.402 152.664 174.464 153.005 173.696 153.688C172.949 154.349 172.49 155.277 172.32 156.472H180.736ZM193.126 152.024C193.702 151.085 194.448 150.349 195.366 149.816C196.304 149.283 197.371 149.016 198.566 149.016V153.72H197.382C195.974 153.72 194.907 154.051 194.182 154.712C193.478 155.373 193.126 156.525 193.126 158.168V167H188.646V149.272H193.126V152.024ZM212.079 167L206.063 159.448V167H201.583V143.32H206.063V156.792L212.015 149.272H217.839L210.031 158.168L217.903 167H212.079ZM252.248 144.664V167H247.768V152.472L241.784 167H238.392L232.376 152.472V167H227.896V144.664H232.984L240.088 161.272L247.192 144.664H252.248ZM264.549 167.288C262.842 167.288 261.306 166.915 259.941 166.168C258.575 165.4 257.498 164.323 256.709 162.936C255.941 161.549 255.557 159.949 255.557 158.136C255.557 156.323 255.951 154.723 256.741 153.336C257.551 151.949 258.65 150.883 260.037 150.136C261.423 149.368 262.97 148.984 264.677 148.984C266.383 148.984 267.93 149.368 269.317 150.136C270.703 150.883 271.791 151.949 272.581 153.336C273.391 154.723 273.797 156.323 273.797 158.136C273.797 159.949 273.381 161.549 272.549 162.936C271.738 164.323 270.629 165.4 269.221 166.168C267.834 166.915 266.277 167.288 264.549 167.288ZM264.549 163.384C265.359 163.384 266.117 163.192 266.821 162.808C267.546 162.403 268.122 161.805 268.549 161.016C268.975 160.227 269.189 159.267 269.189 158.136C269.189 156.451 268.741 155.16 267.845 154.264C266.97 153.347 265.893 152.888 264.613 152.888C263.333 152.888 262.255 153.347 261.381 154.264C260.527 155.16 260.101 156.451 260.101 158.136C260.101 159.821 260.517 161.123 261.349 162.04C262.202 162.936 263.269 163.384 264.549 163.384ZM281.563 151.864C282.139 151.011 282.928 150.317 283.931 149.784C284.955 149.251 286.118 148.984 287.419 148.984C288.934 148.984 290.299 149.357 291.515 150.104C292.752 150.851 293.723 151.917 294.427 153.304C295.152 154.669 295.515 156.259 295.515 158.072C295.515 159.885 295.152 161.496 294.427 162.904C293.723 164.291 292.752 165.368 291.515 166.136C290.299 166.904 288.934 167.288 287.419 167.288C286.096 167.288 284.934 167.032 283.931 166.52C282.95 165.987 282.16 165.304 281.563 164.472V167H277.083V143.32H281.563V151.864ZM290.939 158.072C290.939 157.005 290.715 156.088 290.267 155.32C289.84 154.531 289.264 153.933 288.539 153.528C287.835 153.123 287.067 152.92 286.235 152.92C285.424 152.92 284.656 153.133 283.931 153.56C283.227 153.965 282.651 154.563 282.203 155.352C281.776 156.141 281.563 157.069 281.563 158.136C281.563 159.203 281.776 160.131 282.203 160.92C282.651 161.709 283.227 162.317 283.931 162.744C284.656 163.149 285.424 163.352 286.235 163.352C287.067 163.352 287.835 163.139 288.539 162.712C289.264 162.285 289.84 161.677 290.267 160.888C290.715 160.099 290.939 159.16 290.939 158.072ZM301.043 147.16C300.253 147.16 299.592 146.915 299.059 146.424C298.547 145.912 298.291 145.283 298.291 144.536C298.291 143.789 298.547 143.171 299.059 142.68C299.592 142.168 300.253 141.912 301.043 141.912C301.832 141.912 302.483 142.168 302.995 142.68C303.528 143.171 303.795 143.789 303.795 144.536C303.795 145.283 303.528 145.912 302.995 146.424C302.483 146.915 301.832 147.16 301.043 147.16ZM303.251 149.272V167H298.771V149.272H303.251ZM312.157 143.32V167H307.677V143.32H312.157Z" fill="white"/>
</g>
<defs>
<filter id="filter0_d_2791_7854" x="0" y="0" width="559.656" height="304.962" filterUnits="userSpaceOnUse" color-interpolation-filters="sRGB">
<feFlood flood-opacity="0" result="BackgroundImageFix"/>
<feColorMatrix in="SourceAlpha" type="matrix" values="0 0 0 0 0 0 0 0 0 0 0 0 0 0 0 0 0 0 127 0" result="hardAlpha"/>
<feMorphology radius="4" operator="dilate" in="SourceAlpha" result="effect1_dropShadow_2791_7854"/>
<feOffset dy="4"/>
<feGaussianBlur stdDeviation="20"/>
<feComposite in2="hardAlpha" operator="out"/>
<feColorMatrix type="matrix" values="0 0 0 0 0 0 0 0 0 0 0 0 0 0 0 0 0 0 0.12 0"/>
<feBlend mode="normal" in2="BackgroundImageFix" result="effect1_dropShadow_2791_7854"/>
<feBlend mode="normal" in="SourceGraphic" in2="effect1_dropShadow_2791_7854" result="shape"/>
</filter>
<linearGradient id="paint0_linear_2791_7854" x1="44" y1="148.481" x2="509.996" y2="148.481" gradientUnits="userSpaceOnUse">
<stop stop-color="#FFBE96"/>
<stop offset="1" stop-color="#FF7E95"/>
</linearGradient>
</defs>
</svg>
