<svg width="472" height="217" viewBox="0 0 472 217" fill="none" xmlns="http://www.w3.org/2000/svg">
<rect x="0.34375" width="471.656" height="216.962" rx="10" fill="url(#paint0_linear_2806_7268)"/>
<path fill-rule="evenodd" clip-rule="evenodd" d="M472 147.963V206.962C472 212.485 467.523 216.962 462 216.962H307.148C306.997 214.78 306.92 212.578 306.92 210.359C306.92 158.261 349.154 116.027 401.252 116.027C429.426 116.027 454.715 128.379 472 147.963Z" fill="white" fill-opacity="0.23"/>
<path fill-rule="evenodd" clip-rule="evenodd" d="M472 165.08V10C472 4.47715 467.523 0 462 0H409.604C390.02 17.2849 377.668 42.5742 377.668 70.7483C377.668 122.846 419.902 165.08 472 165.08Z" fill="white" fill-opacity="0.23"/>
<defs>
<linearGradient id="paint0_linear_2806_7268" x1="0.34375" y1="108.481" x2="466.34" y2="108.481" gradientUnits="userSpaceOnUse">
<stop stop-color="#8FC9F9"/>
<stop offset="1" stop-color="#006CC1"/>
</linearGradient>
</defs>
</svg>
