<svg width="34" height="30" viewBox="0 0 34 30" fill="none" xmlns="http://www.w3.org/2000/svg">
<rect width="34" height="30" rx="8" fill="#FFC107"/>
<mask id="mask0_2794_865" style="mask-type:alpha" maskUnits="userSpaceOnUse" x="9" y="8" width="15" height="15">
<rect x="9" y="8" width="15" height="15" fill="#D9D9D9"/>
</mask>
<g mask="url(#mask0_2794_865)">
<path d="M12.125 21.125C11.7812 21.125 11.487 21.0026 11.2422 20.7578C10.9974 20.513 10.875 20.2188 10.875 19.875V11.125C10.875 10.7812 10.9974 10.487 11.2422 10.2422C11.487 9.9974 11.7812 9.875 12.125 9.875H17.7031L16.4531 11.125H12.125V19.875H20.875V15.5312L22.125 14.2812V19.875C22.125 20.2188 22.0026 20.513 21.7578 20.7578C21.513 21.0026 21.2188 21.125 20.875 21.125H12.125ZM14.625 17.375V14.7188L20.3594 8.98438C20.4844 8.85938 20.625 8.76562 20.7812 8.70312C20.9375 8.64063 21.0938 8.60938 21.25 8.60938C21.4167 8.60938 21.5755 8.64063 21.7266 8.70312C21.8776 8.76562 22.0156 8.85938 22.1406 8.98438L23.0156 9.875C23.1302 10 23.2188 10.138 23.2812 10.2891C23.3438 10.4401 23.375 10.5938 23.375 10.75C23.375 10.9062 23.3464 11.0599 23.2891 11.2109C23.2318 11.362 23.1406 11.5 23.0156 11.625L17.2812 17.375H14.625ZM15.875 16.125H16.75L20.375 12.5L19.9375 12.0625L19.4844 11.625L15.875 15.2344V16.125Z" fill="white"/>
</g>
</svg>
