<svg width="34" height="30" viewBox="0 0 34 30" fill="none" xmlns="http://www.w3.org/2000/svg">
<rect width="34" height="30" rx="8" fill="#DC3545"/>
<g clip-path="url(#clip0_2794_838)">
<path d="M13.0312 8.875C12.8158 8.875 12.6091 8.96719 12.4567 9.13128C12.3044 9.29538 12.2188 9.51794 12.2188 9.75V10.625C12.2188 10.8571 12.3044 11.0796 12.4567 11.2437C12.6091 11.4078 12.8158 11.5 13.0312 11.5H13.4375V19.375C13.4375 19.8391 13.6087 20.2842 13.9135 20.6124C14.2182 20.9406 14.6315 21.125 15.0625 21.125H19.9375C20.3685 21.125 20.7818 20.9406 21.0865 20.6124C21.3913 20.2842 21.5625 19.8391 21.5625 19.375V11.5H21.9688C22.1842 11.5 22.3909 11.4078 22.5433 11.2437C22.6956 11.0796 22.7812 10.8571 22.7812 10.625V9.75C22.7812 9.51794 22.6956 9.29538 22.5433 9.13128C22.3909 8.96719 22.1842 8.875 21.9688 8.875H19.125C19.125 8.64294 19.0394 8.42038 18.887 8.25628C18.7347 8.09219 18.528 8 18.3125 8H16.6875C16.472 8 16.2653 8.09219 16.113 8.25628C15.9606 8.42038 15.875 8.64294 15.875 8.875H13.0312ZM15.4688 12.375C15.5765 12.375 15.6798 12.4211 15.756 12.5031C15.8322 12.5852 15.875 12.6965 15.875 12.8125V18.9375C15.875 19.0535 15.8322 19.1648 15.756 19.2469C15.6798 19.3289 15.5765 19.375 15.4688 19.375C15.361 19.375 15.2577 19.3289 15.1815 19.2469C15.1053 19.1648 15.0625 19.0535 15.0625 18.9375V12.8125C15.0625 12.6965 15.1053 12.5852 15.1815 12.5031C15.2577 12.4211 15.361 12.375 15.4688 12.375ZM17.5 12.375C17.6077 12.375 17.7111 12.4211 17.7873 12.5031C17.8634 12.5852 17.9062 12.6965 17.9062 12.8125V18.9375C17.9062 19.0535 17.8634 19.1648 17.7873 19.2469C17.7111 19.3289 17.6077 19.375 17.5 19.375C17.3923 19.375 17.2889 19.3289 17.2127 19.2469C17.1366 19.1648 17.0938 19.0535 17.0938 18.9375V12.8125C17.0938 12.6965 17.1366 12.5852 17.2127 12.5031C17.2889 12.4211 17.3923 12.375 17.5 12.375ZM19.9375 12.8125V18.9375C19.9375 19.0535 19.8947 19.1648 19.8185 19.2469C19.7423 19.3289 19.639 19.375 19.5312 19.375C19.4235 19.375 19.3202 19.3289 19.244 19.2469C19.1678 19.1648 19.125 19.0535 19.125 18.9375V12.8125C19.125 12.6965 19.1678 12.5852 19.244 12.5031C19.3202 12.4211 19.4235 12.375 19.5312 12.375C19.639 12.375 19.7423 12.4211 19.8185 12.5031C19.8947 12.5852 19.9375 12.6965 19.9375 12.8125Z" fill="white"/>
</g>
<defs>
<clipPath id="clip0_2794_838">
<rect width="13" height="14" fill="white" transform="translate(11 8)"/>
</clipPath>
</defs>
</svg>
