<svg width="34" height="30" viewBox="0 0 34 30" fill="none" xmlns="http://www.w3.org/2000/svg">
<rect width="34" height="30" rx="8" fill="#01A8EF"/>
<path d="M19.1875 15C19.1875 15.5802 18.957 16.1366 18.5468 16.5468C18.1366 16.957 17.5802 17.1875 17 17.1875C16.4198 17.1875 15.8634 16.957 15.4532 16.5468C15.043 16.1366 14.8125 15.5802 14.8125 15C14.8125 14.4198 15.043 13.8634 15.4532 13.4532C15.8634 13.043 16.4198 12.8125 17 12.8125C17.5802 12.8125 18.1366 13.043 18.5468 13.4532C18.957 13.8634 19.1875 14.4198 19.1875 15Z" fill="white"/>
<path d="M10 15C10 15 12.625 10.1875 17 10.1875C21.375 10.1875 24 15 24 15C24 15 21.375 19.8125 17 19.8125C12.625 19.8125 10 15 10 15ZM17 18.0625C17.8122 18.0625 18.5912 17.7398 19.1655 17.1655C19.7398 16.5912 20.0625 15.8122 20.0625 15C20.0625 14.1878 19.7398 13.4088 19.1655 12.8345C18.5912 12.2602 17.8122 11.9375 17 11.9375C16.1878 11.9375 15.4088 12.2602 14.8345 12.8345C14.2602 13.4088 13.9375 14.1878 13.9375 15C13.9375 15.8122 14.2602 16.5912 14.8345 17.1655C15.4088 17.7398 16.1878 18.0625 17 18.0625Z" fill="white"/>
</svg>
